<svg width="16" height="17" viewBox="0 0 16 17" fill="none" xmlns="http://www.w3.org/2000/svg">
<path d="M7.88078 8.36703C8.7082 8.36703 9.51704 8.12167 10.205 7.66198C10.893 7.20229 11.4292 6.54891 11.7458 5.78447C12.0625 5.02004 12.1453 4.17887 11.9839 3.36735C11.8225 2.55583 11.424 1.8104 10.839 1.22532C10.2539 0.64025 9.50846 0.241809 8.69694 0.0803869C7.88542 -0.0810348 7.04425 0.00181266 6.27982 0.318453C5.51538 0.635093 4.862 1.1713 4.40231 1.85928C3.94262 2.54725 3.69727 3.35609 3.69727 4.18351C3.69876 5.29259 4.14 6.35582 4.92424 7.14005C5.70847 7.92429 6.7717 8.36553 7.88078 8.36703ZM7.88078 1.24609C8.46159 1.24609 9.02935 1.41831 9.51229 1.74098C9.99522 2.06364 10.3716 2.52226 10.5939 3.05885C10.8162 3.59543 10.8744 4.18588 10.7612 4.75554C10.6479 5.3252 10.3683 5.84848 9.95761 6.25922C9.54697 6.66996 9.02375 6.94971 8.45412 7.0631C7.88449 7.17649 7.29402 7.11843 6.75739 6.89625C6.22075 6.67408 5.76205 6.29777 5.43927 5.81491C5.1165 5.33205 4.94415 4.76432 4.94402 4.18351C4.94516 3.40508 5.25497 2.65887 5.8055 2.10853C6.35603 1.55818 7.10234 1.24863 7.88078 1.24775V1.24609Z" fill="#5A7997"/>
<path d="M1.24778 16.9991C1.24778 13.3419 4.22305 10.3666 7.8803 10.3666C11.5376 10.3666 14.5128 13.3419 14.5128 16.9991H15.7606C15.7605 15.4406 15.2983 13.9171 14.4324 12.6212C13.5665 11.3254 12.3358 10.3154 10.8959 9.71898C9.45602 9.12256 7.87161 8.96651 6.34302 9.27054C4.81444 9.57458 3.41034 10.3251 2.30826 11.4271C1.5742 12.1571 0.992219 13.0254 0.596009 13.9819C0.1998 14.9383 -0.00276898 15.9639 2.85858e-05 16.9991H1.24778Z" fill="#5A7997"/>
</svg>
